<svg width="275" height="35" viewBox="0 0 275 35" fill="none" xmlns="http://www.w3.org/2000/svg">
<g clip-path="url(#clip0_1695_22320)">
<path d="M1.5 0H0.5V58.3333H1.5V0Z" fill="black"/>
<path d="M4.5 0H2.5V58.3333H4.5V0Z" fill="black"/>
<path d="M7.5 0H6.5V58.3333H7.5V0Z" fill="black"/>
<path d="M10.5 0H9.5V58.3333H10.5V0Z" fill="black"/>
<path d="M12.5 0H11.5V58.3333H12.5V0Z" fill="black"/>
<path d="M14.5 0H13.5V58.3333H14.5V0Z" fill="black"/>
<path d="M18.5 0H16.5V58.3333H18.5V0Z" fill="black"/>
<path d="M21.5 0H20.5V58.3333H21.5V0Z" fill="black"/>
<path d="M23.5 0H22.5V58.3333H23.5V0Z" fill="black"/>
<path d="M26.5 0H24.5V58.3333H26.5V0Z" fill="black"/>
<path d="M29.5 0H28.5V58.3333H29.5V0Z" fill="black"/>
<path d="M32.5 0H31.5V58.3333H32.5V0Z" fill="black"/>
<path d="M34.5 0H33.5V58.3333H34.5V0Z" fill="black"/>
<path d="M36.5 0H35.5V58.3333H36.5V0Z" fill="black"/>
<path d="M40.5 0H38.5V58.3333H40.5V0Z" fill="black"/>
<path d="M43.5 0H42.5V58.3333H43.5V0Z" fill="black"/>
<path d="M45.5 0H44.5V58.3333H45.5V0Z" fill="black"/>
<path d="M47.5 0H46.5V58.3333H47.5V0Z" fill="black"/>
<path d="M51.5 0H49.5V58.3333H51.5V0Z" fill="black"/>
<path d="M54.5 0H53.5V58.3333H54.5V0Z" fill="black"/>
</g>
<g clip-path="url(#clip1_1695_22320)">
<path d="M56.5 0H55.5V58.3333H56.5V0Z" fill="black"/>
<path d="M59.5 0H57.5V58.3333H59.5V0Z" fill="black"/>
<path d="M62.5 0H61.5V58.3333H62.5V0Z" fill="black"/>
<path d="M65.5 0H64.5V58.3333H65.5V0Z" fill="black"/>
<path d="M67.5 0H66.5V58.3333H67.5V0Z" fill="black"/>
<path d="M69.5 0H68.5V58.3333H69.5V0Z" fill="black"/>
<path d="M73.5 0H71.5V58.3333H73.5V0Z" fill="black"/>
<path d="M76.5 0H75.5V58.3333H76.5V0Z" fill="black"/>
<path d="M78.5 0H77.5V58.3333H78.5V0Z" fill="black"/>
<path d="M81.5 0H79.5V58.3333H81.5V0Z" fill="black"/>
<path d="M84.5 0H83.5V58.3333H84.5V0Z" fill="black"/>
<path d="M87.5 0H86.5V58.3333H87.5V0Z" fill="black"/>
<path d="M89.5 0H88.5V58.3333H89.5V0Z" fill="black"/>
<path d="M91.5 0H90.5V58.3333H91.5V0Z" fill="black"/>
<path d="M95.5 0H93.5V58.3333H95.5V0Z" fill="black"/>
<path d="M98.5 0H97.5V58.3333H98.5V0Z" fill="black"/>
<path d="M100.5 0H99.5V58.3333H100.5V0Z" fill="black"/>
<path d="M102.5 0H101.5V58.3333H102.5V0Z" fill="black"/>
<path d="M106.5 0H104.5V58.3333H106.5V0Z" fill="black"/>
<path d="M109.5 0H108.5V58.3333H109.5V0Z" fill="black"/>
</g>
<g clip-path="url(#clip2_1695_22320)">
<path d="M111.5 0H110.5V58.3333H111.5V0Z" fill="black"/>
<path d="M114.5 0H112.5V58.3333H114.5V0Z" fill="black"/>
<path d="M117.5 0H116.5V58.3333H117.5V0Z" fill="black"/>
<path d="M120.5 0H119.5V58.3333H120.5V0Z" fill="black"/>
<path d="M122.5 0H121.5V58.3333H122.5V0Z" fill="black"/>
<path d="M124.5 0H123.5V58.3333H124.5V0Z" fill="black"/>
<path d="M128.5 0H126.5V58.3333H128.5V0Z" fill="black"/>
<path d="M131.5 0H130.5V58.3333H131.5V0Z" fill="black"/>
<path d="M133.5 0H132.5V58.3333H133.5V0Z" fill="black"/>
<path d="M136.5 0H134.5V58.3333H136.5V0Z" fill="black"/>
<path d="M139.5 0H138.5V58.3333H139.5V0Z" fill="black"/>
<path d="M142.5 0H141.5V58.3333H142.5V0Z" fill="black"/>
<path d="M144.5 0H143.5V58.3333H144.5V0Z" fill="black"/>
<path d="M146.5 0H145.5V58.3333H146.5V0Z" fill="black"/>
<path d="M150.5 0H148.5V58.3333H150.5V0Z" fill="black"/>
<path d="M153.5 0H152.5V58.3333H153.5V0Z" fill="black"/>
<path d="M155.5 0H154.5V58.3333H155.5V0Z" fill="black"/>
<path d="M157.5 0H156.5V58.3333H157.5V0Z" fill="black"/>
<path d="M161.5 0H159.5V58.3333H161.5V0Z" fill="black"/>
<path d="M164.5 0H163.5V58.3333H164.5V0Z" fill="black"/>
</g>
<g clip-path="url(#clip3_1695_22320)">
<path d="M166.5 0H165.5V58.3333H166.5V0Z" fill="black"/>
<path d="M169.5 0H167.5V58.3333H169.5V0Z" fill="black"/>
<path d="M172.5 0H171.5V58.3333H172.5V0Z" fill="black"/>
<path d="M175.5 0H174.5V58.3333H175.5V0Z" fill="black"/>
<path d="M177.5 0H176.5V58.3333H177.5V0Z" fill="black"/>
<path d="M179.5 0H178.5V58.3333H179.5V0Z" fill="black"/>
<path d="M183.5 0H181.5V58.3333H183.5V0Z" fill="black"/>
<path d="M186.5 0H185.5V58.3333H186.5V0Z" fill="black"/>
<path d="M188.5 0H187.5V58.3333H188.5V0Z" fill="black"/>
<path d="M191.5 0H189.5V58.3333H191.5V0Z" fill="black"/>
<path d="M194.5 0H193.5V58.3333H194.5V0Z" fill="black"/>
<path d="M197.5 0H196.5V58.3333H197.5V0Z" fill="black"/>
<path d="M199.5 0H198.5V58.3333H199.5V0Z" fill="black"/>
<path d="M201.5 0H200.5V58.3333H201.5V0Z" fill="black"/>
<path d="M205.5 0H203.5V58.3333H205.5V0Z" fill="black"/>
<path d="M208.5 0H207.5V58.3333H208.5V0Z" fill="black"/>
<path d="M210.5 0H209.5V58.3333H210.5V0Z" fill="black"/>
<path d="M212.5 0H211.5V58.3333H212.5V0Z" fill="black"/>
<path d="M216.5 0H214.5V58.3333H216.5V0Z" fill="black"/>
<path d="M219.5 0H218.5V58.3333H219.5V0Z" fill="black"/>
</g>
<g clip-path="url(#clip4_1695_22320)">
<path d="M221.5 0H220.5V58.3333H221.5V0Z" fill="black"/>
<path d="M224.5 0H222.5V58.3333H224.5V0Z" fill="black"/>
<path d="M227.5 0H226.5V58.3333H227.5V0Z" fill="black"/>
<path d="M230.5 0H229.5V58.3333H230.5V0Z" fill="black"/>
<path d="M232.5 0H231.5V58.3333H232.5V0Z" fill="black"/>
<path d="M234.5 0H233.5V58.3333H234.5V0Z" fill="black"/>
<path d="M238.5 0H236.5V58.3333H238.5V0Z" fill="black"/>
<path d="M241.5 0H240.5V58.3333H241.5V0Z" fill="black"/>
<path d="M243.5 0H242.5V58.3333H243.5V0Z" fill="black"/>
<path d="M246.5 0H244.5V58.3333H246.5V0Z" fill="black"/>
<path d="M249.5 0H248.5V58.3333H249.5V0Z" fill="black"/>
<path d="M252.5 0H251.5V58.3333H252.5V0Z" fill="black"/>
<path d="M254.5 0H253.5V58.3333H254.5V0Z" fill="black"/>
<path d="M256.5 0H255.5V58.3333H256.5V0Z" fill="black"/>
<path d="M260.5 0H258.5V58.3333H260.5V0Z" fill="black"/>
<path d="M263.5 0H262.5V58.3333H263.5V0Z" fill="black"/>
<path d="M265.5 0H264.5V58.3333H265.5V0Z" fill="black"/>
<path d="M267.5 0H266.5V58.3333H267.5V0Z" fill="black"/>
<path d="M271.5 0H269.5V58.3333H271.5V0Z" fill="black"/>
<path d="M274.5 0H273.5V58.3333H274.5V0Z" fill="black"/>
</g>
<defs>
<clipPath id="clip0_1695_22320">
<rect width="55" height="35" fill="white"/>
</clipPath>
<clipPath id="clip1_1695_22320">
<rect width="55" height="35" fill="white" transform="translate(55)"/>
</clipPath>
<clipPath id="clip2_1695_22320">
<rect width="55" height="35" fill="white" transform="translate(110)"/>
</clipPath>
<clipPath id="clip3_1695_22320">
<rect width="55" height="35" fill="white" transform="translate(165)"/>
</clipPath>
<clipPath id="clip4_1695_22320">
<rect width="55" height="35" fill="white" transform="translate(220)"/>
</clipPath>
</defs>
</svg>
