<svg width="20" height="20" viewBox="0 0 20 20" fill="none" xmlns="http://www.w3.org/2000/svg">
<path d="M16.25 4.58594L15.7336 12.9402C15.6016 15.0746 15.5356 16.1419 15.0006 16.9092C14.7361 17.2885 14.3955 17.6087 14.0006 17.8493C13.2018 18.3359 12.1325 18.3359 9.99395 18.3359C7.8526 18.3359 6.78192 18.3359 5.98254 17.8484C5.58733 17.6073 5.24666 17.2866 4.98224 16.9066C4.4474 16.1381 4.38288 15.0694 4.25384 12.9319L3.75 4.58594" stroke="#E01242" stroke-width="1.5" stroke-linecap="round"/>
<path d="M2.5 4.58464H17.5M13.3798 4.58464L12.8109 3.41107C12.433 2.63152 12.244 2.24174 11.9181 1.99864C11.8458 1.94472 11.7692 1.89675 11.6892 1.85522C11.3283 1.66797 10.8951 1.66797 10.0288 1.66797C9.14069 1.66797 8.69665 1.66797 8.32974 1.86307C8.24842 1.90631 8.17082 1.95622 8.09774 2.01228C7.76803 2.26522 7.58386 2.66926 7.2155 3.47735L6.71077 4.58464" stroke="#E01242" stroke-width="1.5" stroke-linecap="round"/>
<path d="M7.91675 13.75L7.91675 8.75" stroke="#E01242" stroke-width="1.5" stroke-linecap="round"/>
<path d="M12.0833 13.75L12.0833 8.75" stroke="#E01242" stroke-width="1.5" stroke-linecap="round"/>
</svg>
