<svg width="16" height="16" viewBox="0 0 16 16" fill="none" xmlns="http://www.w3.org/2000/svg">
<path d="M7.79997 14.6673C11.4819 14.6673 14.4666 11.6825 14.4666 8.00065C14.4666 4.31875 11.4819 1.33398 7.79997 1.33398C4.11807 1.33398 1.1333 4.31875 1.1333 8.00065C1.1333 11.6825 4.11807 14.6673 7.79997 14.6673Z" stroke="#525E6F" stroke-width="1.5"/>
<path d="M7.80566 7.00545C7.25338 7.00545 6.80566 7.45317 6.80566 8.00545C6.80566 8.55774 7.25338 9.00545 7.80566 9.00545C8.35795 9.00545 8.80566 8.55774 8.80566 8.00545C8.80566 7.45317 8.35795 7.00545 7.80566 7.00545ZM7.80566 7.00545V4.66602M9.81026 10.0132L8.51118 8.71414" stroke="#525E6F" stroke-width="1.5" stroke-linecap="round" stroke-linejoin="round"/>
</svg>
