<svg width="21" height="20" viewBox="0 0 21 20" fill="none" xmlns="http://www.w3.org/2000/svg">
<path d="M12.2282 3.23918C12.8492 2.56637 13.1597 2.22997 13.4896 2.03374C14.2857 1.56027 15.266 1.54554 16.0754 1.9949C16.4108 2.18114 16.7309 2.50807 17.3709 3.16194C18.011 3.8158 18.3311 4.14274 18.5134 4.48541C18.9533 5.31223 18.9388 6.31363 18.4754 7.12689C18.2833 7.46393 17.954 7.78112 17.2953 8.41548L9.45894 15.9632C8.21081 17.1654 7.58675 17.7664 6.8068 18.0711C6.02685 18.3757 5.16942 18.3533 3.45455 18.3085L3.22123 18.3024C2.69917 18.2887 2.43814 18.2819 2.2864 18.1097C2.13467 17.9375 2.15538 17.6716 2.19681 17.1398L2.21931 16.851C2.33592 15.3543 2.39423 14.6059 2.6865 13.9332C2.97878 13.2604 3.48294 12.7142 4.49127 11.6217L12.2282 3.23918Z" stroke="#14181F" stroke-width="1.5" stroke-linejoin="round"/>
<path d="M11.3335 3.33594L17.1668 9.16927" stroke="#14181F" stroke-width="1.5" stroke-linejoin="round"/>
<path d="M12.1667 18.3359L18.8334 18.3359" stroke="#14181F" stroke-width="1.5" stroke-linecap="round" stroke-linejoin="round"/>
</svg>
